<svg width="27" height="40" viewBox="0 0 27 40" fill="none" xmlns="http://www.w3.org/2000/svg">
<path fill-rule="evenodd" clip-rule="evenodd" d="M6.90933 12.2304C10.2867 12.2304 13.0126 9.49257 12.998 6.11522C12.9832 2.73788 10.2334 0 6.85602 0C3.47867 0 0.752729 2.73788 0.767393 6.11522C0.782176 9.49257 3.53199 12.2304 6.90933 12.2304Z" fill="url(#paint0_linear_1014_365)"/>
<path fill-rule="evenodd" clip-rule="evenodd" d="M6.67952 26.914C6.47974 27.2372 6.45642 27.6417 6.62059 27.9908C6.8006 28.3711 7.17848 28.6209 7.60188 28.6357L10.8402 28.7533L9.63533 36.4586C9.55405 36.9786 9.84513 37.4868 10.3351 37.6842L10.7137 37.7627C10.7679 37.7646 10.8249 37.7649 10.8835 37.7631C9.83421 38.6223 8.49169 39.1375 7.02658 39.1375C3.64923 39.1375 0.899419 36.3997 0.884636 33.0223C0.870414 29.7463 3.43482 27.0719 6.67111 26.9144L6.67952 26.914ZM20.4267 26.9071C23.8041 26.9071 26.5539 29.645 26.5687 33.0223C26.5834 36.3997 23.8574 39.1375 20.4801 39.1375C17.2802 39.1375 14.6436 36.6798 14.3629 33.5491L18.57 27.1945C19.1551 27.0078 19.7789 26.9071 20.4267 26.9071ZM6.91461 13.4536C9.98476 13.4536 12.5363 15.7161 12.9862 18.6647L7.64199 25.6473C7.42069 25.6716 7.19579 25.6841 6.96793 25.6841C3.59058 25.6841 0.840769 22.9462 0.825987 19.5688C0.811323 16.1915 3.53726 13.4536 6.91461 13.4536ZM20.3681 13.4536C23.7454 13.4536 26.4953 16.1915 26.51 19.5688C26.5247 22.9462 23.7988 25.6841 20.4214 25.6841C20.145 25.6841 19.8727 25.6657 19.6058 25.6302L19.9899 25.0498C20.2212 24.7109 20.2481 24.2747 20.0632 23.9076C19.876 23.5406 19.5067 23.3046 19.0946 23.2879L15.8632 23.295L17.1429 16.7596C17.2419 16.247 16.9759 15.7307 16.4978 15.5134C16.2992 15.4247 16.085 15.397 15.8797 15.4249C16.9919 14.2128 18.5897 13.4536 20.3681 13.4536Z" fill="url(#paint1_linear_1014_365)"/>
<path d="M11.7549 32.5672L12.5108 27.1985H9.80512C9.46738 27.1985 9.1924 26.9247 9.19092 26.587C9.19036 26.4562 9.23177 26.3288 9.30909 26.2235L13.8384 20.0591C14.0379 19.7875 14.4206 19.7301 14.6931 19.9308C14.8773 20.0665 14.971 20.2932 14.9361 20.5187L14.3015 24.6196H17.2543C17.592 24.6196 17.867 24.8934 17.8685 25.2311C17.869 25.3515 17.834 25.4691 17.7679 25.5694L12.8714 32.9933C12.6858 33.2747 12.3066 33.3513 12.0244 33.1645C11.8269 33.0338 11.7219 32.8012 11.7549 32.5672Z" fill="url(#paint2_linear_1014_365)"/>
<path opacity="0.302" fill-rule="evenodd" clip-rule="evenodd" d="M6.59305 12.7197C9.97039 12.7197 12.6963 9.98182 12.6817 6.60448C12.6669 3.22714 9.91708 0.489258 6.53973 0.489258C3.16239 0.489258 0.436445 3.22714 0.451109 6.60448C0.465891 9.98182 3.21571 12.7197 6.59305 12.7197Z" fill="url(#paint3_linear_1014_365)"/>
<path opacity="0.302" fill-rule="evenodd" clip-rule="evenodd" d="M6.36336 27.4032C6.16357 27.7265 6.14026 28.1309 6.30443 28.48C6.48444 28.8604 6.86232 29.1102 7.28572 29.125L10.5241 29.2425L9.31916 36.9479C9.23789 37.4678 9.52897 37.976 10.0189 38.1734L10.3975 38.252C10.4517 38.2539 10.5088 38.2542 10.5673 38.2523C9.51805 39.1116 8.17552 39.6268 6.71042 39.6268C3.33307 39.6268 0.583257 36.8889 0.568474 33.5116C0.554252 30.2356 3.11866 27.5612 6.35495 27.4037L6.36336 27.4032ZM20.1106 27.3964C23.4879 27.3964 26.2377 30.1342 26.2525 33.5116C26.2672 36.8889 23.5413 39.6268 20.1639 39.6268C16.964 39.6268 14.3274 37.1691 14.0467 34.0383L18.2538 27.6837C18.839 27.4971 19.4628 27.3964 20.1106 27.3964ZM6.59845 13.9429C9.6686 13.9429 12.2202 16.2053 12.67 19.154L7.32583 26.1366C7.10453 26.1609 6.87963 26.1733 6.65176 26.1733C3.27442 26.1733 0.524607 23.4354 0.509825 20.0581C0.495161 16.6807 3.2211 13.9429 6.59845 13.9429ZM20.0519 13.9429C23.4293 13.9429 26.1791 16.6807 26.1939 20.0581C26.2085 23.4354 23.4826 26.1733 20.1053 26.1733C19.8288 26.1733 19.5566 26.155 19.2897 26.1194L19.6738 25.5391C19.9051 25.2001 19.9319 24.7639 19.747 24.3969C19.5598 24.0298 19.1905 23.7938 18.7785 23.7772L15.5471 23.7843L16.8267 17.2488C16.9258 16.7363 16.6597 16.2199 16.1817 16.0027C15.983 15.9139 15.7688 15.8863 15.5635 15.9141C16.6757 14.702 18.2735 13.9429 20.0519 13.9429Z" fill="url(#paint4_linear_1014_365)"/>
<path opacity="0.302" d="M11.4387 33.0565L12.1946 27.6878H9.48896C9.15122 27.6878 8.87624 27.414 8.87476 27.0763C8.8742 26.9454 8.91561 26.818 8.99293 26.7128L13.5222 20.5484C13.7218 20.2768 14.1044 20.2193 14.3769 20.4201C14.5611 20.5558 14.6548 20.7825 14.6199 21.0079L13.9854 25.1089H16.9381C17.2758 25.1089 17.5508 25.3827 17.5523 25.7204C17.5528 25.8407 17.5178 25.9584 17.4517 26.0586L12.5552 33.4826C12.3696 33.7639 11.9904 33.8406 11.7083 33.6538C11.5107 33.523 11.4058 33.2904 11.4387 33.0565Z" fill="url(#paint5_linear_1014_365)"/>
<path opacity="0.154" fill-rule="evenodd" clip-rule="evenodd" d="M6.142 13.0864C9.51934 13.0864 12.2453 10.3485 12.2306 6.97118C12.2158 3.59384 9.46603 0.855957 6.08868 0.855957C2.71134 0.855957 -0.0146051 3.59384 5.88864e-05 6.97118C0.0148416 10.3485 2.76466 13.0864 6.142 13.0864Z" fill="url(#paint6_linear_1014_365)"/>
<path opacity="0.154" fill-rule="evenodd" clip-rule="evenodd" d="M5.91219 27.7699C5.7124 28.0932 5.68909 28.4976 5.85326 28.8467C6.03327 29.2271 6.41115 29.4769 6.83454 29.4917L10.0729 29.6092L8.86799 37.3146C8.78672 37.8345 9.0778 38.3427 9.56776 38.5401L9.94636 38.6187C10.0006 38.6206 10.0576 38.6209 10.1162 38.619C9.06687 39.4783 7.72435 39.9935 6.25924 39.9935C2.8819 39.9935 0.132085 37.2556 0.117302 33.8783C0.10308 30.6023 2.66749 27.9279 5.90378 27.7704L5.91219 27.7699ZM19.6594 27.7631C23.0368 27.7631 25.7866 30.5009 25.8014 33.8783C25.816 37.2556 23.0901 39.9935 19.7127 39.9935C16.5128 39.9935 13.8763 37.5358 13.5955 34.405L17.8027 28.0504C18.3878 27.8638 19.0116 27.7631 19.6594 27.7631ZM6.14728 14.3096C9.21743 14.3096 11.769 16.572 12.2188 19.5207L6.87465 26.5033C6.65336 26.5276 6.42846 26.54 6.20059 26.54C2.82325 26.54 0.0734354 23.8021 0.0586526 20.4248C0.0439886 17.0474 2.76993 14.3096 6.14728 14.3096ZM19.6008 14.3096C22.9781 14.3096 25.7279 17.0474 25.7427 20.4248C25.7574 23.8021 23.0314 26.54 19.6541 26.54C19.3776 26.54 19.1054 26.5217 18.8385 26.4861L19.2226 25.9058C19.4539 25.5668 19.4808 25.1306 19.2958 24.7636C19.1087 24.3965 18.7394 24.1605 18.3273 24.1439L15.0959 24.151L16.3755 17.6155C16.4746 17.103 16.2086 16.5866 15.7305 16.3694C15.5319 16.2806 15.3176 16.253 15.1124 16.2808C16.2245 15.0687 17.8223 14.3096 19.6008 14.3096Z" fill="url(#paint7_linear_1014_365)"/>
<path opacity="0.154" d="M10.9875 33.4232L11.7435 28.0545H9.03778C8.70005 28.0545 8.42507 27.7807 8.42359 27.443C8.42303 27.3121 8.46444 27.1847 8.54176 27.0795L13.071 20.9151C13.2706 20.6435 13.6533 20.586 13.9257 20.7868C14.1099 20.9225 14.2036 21.1492 14.1688 21.3746L13.5342 25.4756H16.4869C16.8247 25.4756 17.0997 25.7494 17.1011 26.0871C17.1017 26.2074 17.0667 26.3251 17.0005 26.4253L12.104 33.8493C11.9185 34.1306 11.5393 34.2073 11.2571 34.0205C11.0596 33.8897 10.9546 33.6571 10.9875 33.4232Z" fill="url(#paint8_linear_1014_365)"/>
<defs>
<linearGradient id="paint0_linear_1014_365" x1="0.767334" y1="-3.96597" x2="9.42612" y2="18.1978" gradientUnits="userSpaceOnUse">
<stop stop-color="#6297F6"/>
<stop offset="1" stop-color="#2250E7"/>
</linearGradient>
<linearGradient id="paint1_linear_1014_365" x1="0.825926" y1="5.22166" x2="18.9791" y2="51.5809" gradientUnits="userSpaceOnUse">
<stop stop-color="#6297F6"/>
<stop offset="1" stop-color="#2250E7"/>
</linearGradient>
<linearGradient id="paint2_linear_1014_365" x1="13.5297" y1="19.811" x2="13.5297" y2="33.2667" gradientUnits="userSpaceOnUse">
<stop stop-color="#F1D930"/>
<stop offset="1" stop-color="#FFB000"/>
</linearGradient>
<linearGradient id="paint3_linear_1014_365" x1="0.451049" y1="-3.47671" x2="9.10984" y2="18.6871" gradientUnits="userSpaceOnUse">
<stop stop-color="#6297F6"/>
<stop offset="1" stop-color="#2250E7"/>
</linearGradient>
<linearGradient id="paint4_linear_1014_365" x1="0.509764" y1="5.71091" x2="18.6629" y2="52.0702" gradientUnits="userSpaceOnUse">
<stop stop-color="#6297F6"/>
<stop offset="1" stop-color="#2250E7"/>
</linearGradient>
<linearGradient id="paint5_linear_1014_365" x1="13.2135" y1="20.3003" x2="13.2135" y2="33.7559" gradientUnits="userSpaceOnUse">
<stop stop-color="#F1D930"/>
<stop offset="1" stop-color="#FFB000"/>
</linearGradient>
<linearGradient id="paint6_linear_1014_365" x1="-3.35074e-07" y1="-3.11001" x2="8.65879" y2="19.0537" gradientUnits="userSpaceOnUse">
<stop stop-color="#6297F6"/>
<stop offset="1" stop-color="#2250E7"/>
</linearGradient>
<linearGradient id="paint7_linear_1014_365" x1="0.0585924" y1="6.07761" x2="18.2118" y2="52.4369" gradientUnits="userSpaceOnUse">
<stop stop-color="#6297F6"/>
<stop offset="1" stop-color="#2250E7"/>
</linearGradient>
<linearGradient id="paint8_linear_1014_365" x1="12.7624" y1="20.667" x2="12.7624" y2="34.1226" gradientUnits="userSpaceOnUse">
<stop stop-color="#F1D930"/>
<stop offset="1" stop-color="#FFB000"/>
</linearGradient>
</defs>
</svg>
