<svg width="65" height="20" viewBox="0 0 65 20" fill="none" xmlns="http://www.w3.org/2000/svg">
<g clip-path="url(#clip0_1_2020)">
<g clip-path="url(#clip1_1_2020)">
<path d="M38.3171 8.1838C40.1975 8.1838 41.4285 9.61224 41.4285 11.6283C41.4285 13.6342 40.1044 15.0966 38.2457 15.0966C37.8001 15.0966 37.3891 15.0144 37.0473 14.8661L37.0022 14.8459L37.0022 17.2265H34.4681V8.32659H36.9427L36.9427 8.51457L36.9481 8.5117C37.3091 8.31788 37.7553 8.19789 38.2314 8.18497L38.2791 8.18403L38.3171 8.1838ZM45.5944 8.14811C47.5896 8.14811 49.0984 9.62901 49.0984 11.6402C49.0984 13.6533 47.5875 15.1442 45.5944 15.1442C43.6091 15.1442 42.0904 13.6495 42.0904 11.6402C42.0904 9.63284 43.607 8.14811 45.5944 8.14811ZM20.9979 5.62559V8.4923L21.0251 8.4787C21.3779 8.30416 21.8088 8.19716 22.2618 8.18497L22.3104 8.18403L22.3486 8.1838C24.2289 8.1838 25.4599 9.61224 25.4599 11.6283C25.4599 13.6342 24.1358 15.0966 22.2772 15.0966C21.8154 15.0966 21.3869 14.9897 21.0328 14.7996L20.9977 14.7803L20.9741 14.7669V14.9658H18.4995V5.62559H20.9979ZM32.684 6.60128L32.6839 8.32659H33.8381V10.6346H32.6839L32.684 12.485C32.684 12.6978 32.7137 12.7364 32.927 12.7406L32.9756 12.741C33.0894 12.741 33.2032 12.7259 33.3333 12.6987L33.3729 12.6901L33.8143 12.592V14.7677L33.6138 14.868C33.3781 14.9858 33.016 15.0728 32.5116 15.0728C31.1039 15.0728 30.192 14.2063 30.1739 12.8476L30.1736 12.8063L30.1736 10.6346H29.1265V8.32659H29.7868C30.1526 8.32659 30.3333 8.12894 30.34 7.74775L30.3402 7.72556V6.60128H32.684ZM28.5764 8.29089V14.9658H26.0423V8.29089H28.5764ZM48.9223 8.32659H51.5709L52.3126 10.954L53.1885 8.32659H55.6283L56.4928 10.956L57.2327 8.32659H59.7725L57.7153 14.9658H55.3906L54.3694 11.9306L53.3672 14.9658H51.0062L48.9223 8.32659ZM63.9245 8.26709C64.1191 8.26709 64.3195 8.29105 64.4743 8.33321L64.5047 8.34188L64.7632 8.41944V10.9322L64.3173 10.8273C64.1664 10.7917 64.0136 10.7774 63.8293 10.7774C63.1983 10.7774 62.8208 11.1475 62.812 11.9907L62.8118 12.021V14.9658H60.2777V8.32659H62.7523L62.7523 8.57457L62.7746 8.56143C63.0935 8.37622 63.4689 8.27933 63.85 8.26818L63.8924 8.26729L63.9245 8.26709ZM37.9483 10.5394C37.3712 10.5394 36.9784 10.9275 36.9784 11.6402C36.9784 12.3487 37.3802 12.7529 37.9483 12.7529C38.5323 12.7529 38.9301 12.3575 38.9301 11.6402C38.9301 10.9261 38.5363 10.5394 37.9483 10.5394ZM45.5884 10.4791C45.0114 10.4791 44.6186 10.8671 44.6186 11.5799C44.6186 12.2883 45.0203 12.6925 45.5884 12.6925C46.1724 12.6925 46.5702 12.2971 46.5702 11.5799C46.5702 10.8658 46.1764 10.4791 45.5884 10.4791ZM21.9559 10.5394C21.3698 10.5394 20.9741 10.9232 20.9741 11.6402C20.9741 12.3456 21.3839 12.7529 21.9559 12.7529C22.529 12.7529 22.9258 12.3561 22.9258 11.6402C22.9258 10.9201 22.5381 10.5394 21.9559 10.5394ZM27.2987 5.61804C28.0067 5.61804 28.579 6.18593 28.579 6.88772C28.579 7.58951 28.0067 8.15739 27.2987 8.15739C26.6075 8.15739 26.0397 7.58509 26.0397 6.88772C26.0397 6.19035 26.6075 5.61804 27.2987 5.61804Z" fill="white"/>
<path fill-rule="evenodd" clip-rule="evenodd" d="M3.63968 6.1619C5.24247 6.1619 6.53613 4.86258 6.52917 3.25978C6.52215 1.65699 5.21717 0.357666 3.61437 0.357666C2.01158 0.357666 0.717922 1.65699 0.724881 3.25978C0.731897 4.86258 2.03688 6.1619 3.63968 6.1619Z" fill="url(#paint0_linear_1_2020)"/>
<path fill-rule="evenodd" clip-rule="evenodd" d="M3.53308 13.1295C3.43827 13.2829 3.4272 13.4748 3.50511 13.6405C3.59054 13.821 3.76987 13.9396 3.9708 13.9466L5.50764 14.0024L4.93582 17.6591C4.89725 17.9059 5.03539 18.147 5.26791 18.2407L5.44759 18.278C5.47331 18.2789 5.50038 18.279 5.52817 18.2782C5.03021 18.6859 4.39308 18.9305 3.69778 18.9305C2.09499 18.9305 0.790004 17.6311 0.782988 16.0283C0.776239 14.4736 1.99324 13.2045 3.52909 13.1297L3.53308 13.1295ZM10.0571 13.1262C11.6599 13.1262 12.9649 14.4256 12.9719 16.0283C12.9789 17.6311 11.6852 18.9305 10.0824 18.9305C8.56386 18.9305 7.31262 17.7641 7.17938 16.2783L9.17597 13.2626C9.45365 13.174 9.74971 13.1262 10.0571 13.1262ZM3.64465 6.74158C5.10165 6.74158 6.31257 7.81528 6.52604 9.21462L3.98984 12.5284C3.88482 12.5399 3.77809 12.5458 3.66995 12.5458C2.06716 12.5458 0.76217 11.2465 0.755155 9.64369C0.748196 8.0409 2.04185 6.74158 3.64465 6.74158ZM10.0293 6.74158C11.6321 6.74158 12.9371 8.0409 12.9441 9.64369C12.9511 11.2465 11.6574 12.5458 10.0546 12.5458C9.92341 12.5458 9.79421 12.5371 9.66755 12.5202L9.84983 12.2448C9.9596 12.084 9.97235 11.8769 9.88459 11.7028C9.79576 11.5286 9.62051 11.4166 9.42495 11.4087L7.89141 11.412L8.49869 8.3105C8.54571 8.06724 8.41946 7.82221 8.19258 7.71911C8.09831 7.67699 7.99664 7.66385 7.89922 7.67708C8.42703 7.10186 9.1853 6.74158 10.0293 6.74158Z" fill="url(#paint1_linear_1_2020)"/>
<path d="M5.94188 15.8129L6.30062 13.2651H5.01658C4.8563 13.2651 4.7258 13.1351 4.7251 12.9748C4.72483 12.9127 4.74449 12.8523 4.78118 12.8023L6.93066 9.87689C7.02536 9.748 7.20696 9.72073 7.33627 9.816C7.42368 9.8804 7.46816 9.98798 7.4516 10.095L7.15046 12.0412H8.55174C8.71202 12.0412 8.84252 12.1711 8.84322 12.3314C8.84347 12.3885 8.82687 12.4443 8.79549 12.4919L6.47174 16.0151C6.38367 16.1486 6.20371 16.185 6.0698 16.0964C5.97606 16.0343 5.92625 15.9239 5.94188 15.8129Z" fill="white"/>
<path opacity="0.302" fill-rule="evenodd" clip-rule="evenodd" d="M3.49246 6.39456C5.09525 6.39456 6.38891 5.09524 6.38195 3.49245C6.37494 1.88965 5.06995 0.590332 3.46716 0.590332C1.86436 0.590332 0.570706 1.88965 0.577665 3.49245C0.58468 5.09524 1.88967 6.39456 3.49246 6.39456Z" fill="url(#paint2_linear_1_2020)"/>
<path opacity="0.302" fill-rule="evenodd" clip-rule="evenodd" d="M3.38367 13.362C3.28885 13.5154 3.27779 13.7074 3.3557 13.873C3.44113 14.0536 3.62046 14.1721 3.82139 14.1791L5.35823 14.2349L4.78641 17.8917C4.74784 18.1384 4.88598 18.3796 5.1185 18.4733L5.29817 18.5105C5.3239 18.5114 5.35096 18.5116 5.37875 18.5107C4.88079 18.9185 4.24367 19.163 3.54837 19.163C1.94558 19.163 0.64059 17.8637 0.633574 16.2609C0.626825 14.7062 1.84382 13.437 3.37968 13.3623L3.38367 13.362ZM9.90772 13.3588C11.5105 13.3588 12.8155 14.6581 12.8225 16.2609C12.8295 17.8637 11.5358 19.163 9.93302 19.163C8.41445 19.163 7.1632 17.9966 7.02996 16.5109L9.02655 13.4952C9.30424 13.4066 9.60029 13.3588 9.90772 13.3588ZM3.49523 6.97412C4.95224 6.97412 6.16315 8.04783 6.37663 9.44716L3.84043 12.7609C3.73541 12.7724 3.62867 12.7784 3.52054 12.7784C1.91774 12.7784 0.612756 11.479 0.605741 9.87624C0.598782 8.27344 1.89244 6.97412 3.49523 6.97412ZM9.87989 6.97412C11.4827 6.97412 12.7877 8.27344 12.7947 9.87624C12.8016 11.479 11.508 12.7784 9.90519 12.7784C9.77399 12.7784 9.64479 12.7696 9.51814 12.7528L9.70042 12.4774C9.81019 12.3165 9.82294 12.1095 9.73518 11.9353C9.64635 11.7611 9.4711 11.6491 9.27554 11.6412L7.742 11.6446L8.34928 8.54304C8.3963 8.29978 8.27005 8.05475 8.04316 7.95165C7.9489 7.90953 7.84723 7.8964 7.74981 7.90962C8.27761 7.3344 9.03589 6.97412 9.87989 6.97412Z" fill="url(#paint3_linear_1_2020)"/>
<path opacity="0.302" d="M5.791 16.0454L6.14975 13.4976H4.8657C4.70542 13.4976 4.57492 13.3677 4.57422 13.2074C4.57395 13.1453 4.59361 13.0848 4.6303 13.0349L6.77978 10.1094C6.87448 9.98054 7.05608 9.95328 7.18539 10.0485C7.27281 10.1129 7.31728 10.2205 7.30072 10.3275L6.99958 12.2737H8.40087C8.56114 12.2737 8.69164 12.4036 8.69235 12.5639C8.69259 12.621 8.67599 12.6769 8.64461 12.7244L6.32086 16.2476C6.23279 16.3812 6.05284 16.4176 5.91892 16.3289C5.82518 16.2668 5.77537 16.1565 5.791 16.0454Z" fill="#CCCCCC"/>
<path fill-rule="evenodd" clip-rule="evenodd" d="M3.27762 6.56827C4.88041 6.56827 6.17407 5.26895 6.16711 3.66615C6.16009 2.06336 4.85511 0.764038 3.25231 0.764038C1.64952 0.764038 0.355862 2.06336 0.362821 3.66615C0.369836 5.26895 1.67482 6.56827 3.27762 6.56827Z" fill="white"/>
<path fill-rule="evenodd" clip-rule="evenodd" d="M3.16748 13.5365C3.07267 13.6899 3.0616 13.8818 3.13951 14.0475C3.22494 14.228 3.40427 14.3465 3.6052 14.3536L5.14204 14.4094L4.57022 18.0661C4.53165 18.3129 4.66979 18.554 4.90231 18.6477L5.08199 18.685C5.10771 18.6859 5.13478 18.686 5.16257 18.6852C4.66461 19.0929 4.02748 19.3374 3.33218 19.3374C1.72939 19.3374 0.424403 18.0381 0.417388 16.4353C0.410638 14.8806 1.62764 13.6114 3.16349 13.5367L3.16748 13.5365ZM9.69153 13.5332C11.2943 13.5332 12.5993 14.8325 12.6063 16.4353C12.6133 18.0381 11.3196 19.3374 9.71684 19.3374C8.19826 19.3374 6.94701 18.1711 6.81378 16.6853L8.81037 13.6696C9.08805 13.581 9.3841 13.5332 9.69153 13.5332ZM3.27905 7.14856C4.73605 7.14856 5.94697 8.22227 6.16044 9.6216L3.62424 12.9354C3.51922 12.9469 3.41249 12.9528 3.30435 12.9528C1.70156 12.9528 0.39657 11.6535 0.389554 10.0507C0.382595 8.44788 1.67625 7.14856 3.27905 7.14856ZM9.6637 7.14856C11.2665 7.14856 12.5715 8.44788 12.5785 10.0507C12.5855 11.6535 11.2918 12.9528 9.689 12.9528C9.55781 12.9528 9.42861 12.9441 9.30195 12.9272L9.48423 12.6518C9.594 12.491 9.60675 12.2839 9.51899 12.1098C9.43016 11.9355 9.25491 11.8236 9.05935 11.8157L7.52581 11.819L8.13309 8.71748C8.18011 8.47422 8.05386 8.22919 7.82698 8.12609C7.73271 8.08397 7.63104 8.07084 7.53362 8.08406C8.06143 7.50884 8.8197 7.14856 9.6637 7.14856Z" fill="white"/>
<path d="M5.57604 16.2199L5.93478 13.672H4.65073C4.49046 13.672 4.35996 13.5421 4.35926 13.3818C4.35899 13.3197 4.37864 13.2593 4.41533 13.2093L6.56481 10.2839C6.65952 10.155 6.84111 10.1277 6.97042 10.223C7.05784 10.2874 7.10231 10.395 7.08575 10.502L6.78461 12.4482H8.1859C8.34618 12.4482 8.47667 12.5781 8.47738 12.7384C8.47762 12.7955 8.46102 12.8513 8.42964 12.8989L6.10589 16.4221C6.01782 16.5556 5.83787 16.592 5.70395 16.5033C5.61021 16.4413 5.5604 16.3309 5.57604 16.2199Z" fill="white"/>
</g>
</g>
<defs>
<linearGradient id="paint0_linear_1_2020" x1="0.724853" y1="-1.52447" x2="4.83407" y2="8.99383" gradientUnits="userSpaceOnUse">
<stop stop-color="#6297F6"/>
<stop offset="1" stop-color="#2250E7"/>
</linearGradient>
<linearGradient id="paint1_linear_1_2020" x1="0.755126" y1="2.83492" x2="9.37013" y2="24.8357" gradientUnits="userSpaceOnUse">
<stop stop-color="#6297F6"/>
<stop offset="1" stop-color="#2250E7"/>
</linearGradient>
<linearGradient id="paint2_linear_1_2020" x1="0.577637" y1="-1.29181" x2="4.68686" y2="9.2265" gradientUnits="userSpaceOnUse">
<stop stop-color="#6297F6"/>
<stop offset="1" stop-color="#2250E7"/>
</linearGradient>
<linearGradient id="paint3_linear_1_2020" x1="0.605712" y1="3.06746" x2="9.22071" y2="25.0683" gradientUnits="userSpaceOnUse">
<stop stop-color="#6297F6"/>
<stop offset="1" stop-color="#2250E7"/>
</linearGradient>
<clipPath id="clip0_1_2020">
<rect width="64.5418" height="19.0552" fill="white" transform="translate(0.362793 0.357666)"/>
</clipPath>
<clipPath id="clip1_1_2020">
<rect width="64.5418" height="19.0451" fill="white" transform="translate(0.362793 0.357666)"/>
</clipPath>
</defs>
</svg>
