<svg width="1226" height="228" viewBox="0 0 1226 228" fill="none" xmlns="http://www.w3.org/2000/svg">
<path d="M661.904 92.5312H1542.22V94.2976H661.904V92.5312Z" fill="#5285F2"/>
<path d="M662.126 96.0643C660.581 96.0643 659.477 94.7395 659.477 93.4147C659.477 91.8691 660.801 90.7651 662.126 90.7651C663.672 90.7651 664.776 92.0899 664.776 93.4147C664.776 94.9603 663.672 96.0643 662.126 96.0643Z" fill="#5285F2"/>
<path d="M1332.25 57.6455H1534.94V55.8792H1332.91L1265.34 -11.9058H1097.32V-9.91858H1264.46L1332.25 57.6455Z" fill="#5285F2"/>
<path d="M1043.22 47.7096H1268.66V45.7224H1043.88L943.862 -54.2989H552.829L531.412 -75.7163H424.767L388.335 -39.0639H234.439L206.839 -11.4642L207.943 -10.1394L235.322 -37.2975H388.998L425.65 -73.7291H530.75L551.946 -52.5325H942.979L1043.22 47.7096Z" fill="#5285F2"/>
<path d="M560.118 23.6433H971.464V21.6561H561.001L522.582 -16.7627H354.555V-14.7755H521.699L560.118 23.6433Z" fill="#5285F2"/>
<path d="M971.243 25.409C972.788 25.409 973.892 24.0842 973.892 22.7594C973.892 21.2138 972.568 20.1099 971.243 20.1099C969.918 20.1099 968.593 21.4346 968.593 22.7594C968.593 24.0842 969.697 25.409 971.243 25.409Z" fill="#5285F2"/>
<path d="M1369.78 31.15H1504.69V29.3836H1370.44L1296.48 -44.8045H1170.18L1035.71 -179.27H546.648V-177.504H1035.05L1169.52 -43.0381H1295.59L1369.78 31.15Z" fill="#5285F2"/>
<path d="M1070.38 17.2398L1071.71 15.915L969.917 -85.8728H773.187L736.093 -122.967H466.94L447.952 -103.978H307.745L273.521 -69.7545L274.846 -68.4297L308.407 -102.212H448.614L467.603 -121.2H735.43L772.524 -84.1064H969.034L1070.38 17.2398Z" fill="#5285F2"/>
<path d="M1069.06 18.3441C1070.16 19.4481 1071.93 19.4481 1073.03 18.3441C1074.13 17.2401 1074.13 15.4737 1073.03 14.3697C1071.93 13.2658 1070.16 13.2658 1069.06 14.3697C1067.95 15.4737 1067.95 17.2401 1069.06 18.3441Z" fill="#5285F2"/>
<path d="M395.844 290.587H770.979L868.351 192.994H1307.52L1369.56 119.91H1509.33V118.144H1368.9L1306.63 191.228H867.468L770.096 288.6H395.844V290.587Z" fill="#5285F2"/>
<path d="M355.437 212.204H671.62L734.768 149.056H1308.62V147.29H734.105L670.957 210.438H355.437V212.204Z" fill="#5285F2"/>
<path d="M355.658 214.191C354.112 214.191 353.008 212.866 353.008 211.542C353.008 209.996 354.333 208.892 355.658 208.892C357.203 208.892 358.307 210.217 358.307 211.542C358.307 212.866 357.203 214.191 355.658 214.191Z" fill="#5285F2"/>
<path d="M310.616 256.142H533.401L554.156 235.608H728.365L796.812 167.161L795.488 165.836L727.703 233.842H553.273L532.738 254.376H310.616V256.142Z" fill="#5285F2"/>
<path d="M795.929 169.369C794.465 169.369 793.279 168.183 793.279 166.72C793.279 165.256 794.465 164.07 795.929 164.07C797.392 164.07 798.578 165.256 798.578 166.72C798.578 168.183 797.392 169.369 795.929 169.369Z" fill="#5285F2"/>
<path d="M678.465 121.236H1038.14V123.002H678.465V121.236Z" fill="#5285F2"/>
<path d="M1038.14 124.989C1039.69 124.989 1040.79 123.664 1040.79 122.339C1040.79 120.794 1039.47 119.69 1038.14 119.69C1036.6 119.69 1035.49 121.014 1035.49 122.339C1035.27 123.664 1036.6 124.989 1038.14 124.989Z" fill="#5285F2"/>
<path d="M678.465 124.989C676.92 124.989 675.816 123.664 675.816 122.339C675.816 120.794 677.141 119.69 678.465 119.69C680.011 119.69 681.115 121.014 681.115 122.339C681.336 123.664 680.011 124.989 678.465 124.989Z" fill="#5285F2"/>
<path d="M535.389 179.306H672.283V177.539H536.272L481.293 122.561H229.805V124.548H480.631L535.389 179.306Z" fill="#5285F2"/>
<path d="M672.062 181.071C670.599 181.071 669.412 179.885 669.412 178.422C669.412 176.958 670.599 175.772 672.062 175.772C673.525 175.772 674.711 176.958 674.711 178.422C674.711 179.885 673.525 181.071 672.062 181.071Z" fill="#5285F2"/>
<path d="M229.804 126.314C228.258 126.314 227.154 124.989 227.154 123.664C227.154 122.119 228.479 121.015 229.804 121.015C231.129 121.015 232.454 122.339 232.454 123.664C232.674 124.989 231.35 126.314 229.804 126.314Z" fill="#5285F2"/>
<path d="M303.77 90.1032H543.115L571.819 61.3995H855.986L875.416 41.9693L874.091 40.6445L855.102 59.4123H571.156L542.453 88.3368H303.77V90.1032Z" fill="#5285F2"/>
<path d="M876.52 43.2938C877.624 42.1898 877.624 40.4234 876.52 39.3195C875.416 38.2155 873.649 38.2155 872.545 39.3195C871.441 40.4234 871.441 42.1898 872.545 43.2938C873.649 44.3978 875.416 44.3978 876.52 43.2938Z" fill="#5285F2"/>
<path d="M303.992 91.8692C302.446 91.8692 301.342 90.5444 301.342 89.2197C301.342 87.6741 302.667 86.5701 303.992 86.5701C305.537 86.5701 306.641 87.8949 306.641 89.2197C306.641 90.7652 305.537 91.8692 303.992 91.8692Z" fill="#5285F2"/>
<path d="M997.958 65.5942H1192.48V67.3607H997.958V65.5942Z" fill="#5285F2"/>
<path d="M1192.48 69.3475C1194.03 69.3475 1195.13 68.0227 1195.13 66.6979C1195.13 65.1523 1193.81 64.0483 1192.48 64.0483C1190.94 64.0483 1189.83 65.3731 1189.83 66.6979C1189.61 68.0227 1190.94 69.3475 1192.48 69.3475Z" fill="#5285F2"/>
<path d="M998.179 69.3475C996.633 69.3475 995.529 68.0227 995.529 66.6979C995.529 65.1523 996.854 64.0483 998.179 64.0483C999.724 64.0483 1000.83 65.3731 1000.83 66.6979C1001.05 68.0227 999.724 69.3475 998.179 69.3475Z" fill="#5285F2"/>
<path d="M196.243 54.1127H383.479L415.495 22.097H514.633V20.1099H414.832L382.817 52.1255H196.905L169.305 24.7466L167.98 26.0714L196.243 54.1127Z" fill="#5285F2"/>
<path d="M514.412 23.8631C515.957 23.8631 517.061 22.5383 517.061 21.2135C517.061 19.6679 515.736 18.564 514.412 18.564C512.866 18.564 511.762 19.8887 511.762 21.2135C511.762 22.5383 512.866 23.8631 514.412 23.8631Z" fill="#5285F2"/>
<path d="M166.876 27.3961C165.772 26.2921 165.772 24.5257 166.876 23.4217C167.98 22.3178 169.747 22.3178 170.851 23.4217C171.955 24.5257 171.955 26.2921 170.851 27.3961C169.747 28.5001 167.98 28.5001 166.876 27.3961Z" fill="#5285F2"/>
<path d="M925.317 249.74H1204.85L1243.27 211.321L1241.94 210.217L1204.18 247.973H925.317V249.74Z" fill="#5285F2"/>
<path d="M593.016 404.298H1171.06L1434.26 141.328L1432.93 140.003L1170.4 402.532H593.899L540.466 349.099H218.764L165.552 295.666H102.182V297.653H164.889L218.101 350.865H539.583L593.016 404.298Z" fill="#5285F2"/>
<path d="M320.109 314.875H833.685L854.66 293.899H1217.43L1273.07 238.258H1312.59V236.492H1272.41L1216.77 292.133H853.777L832.801 313.109H320.772L283.898 276.236H184.981L138.393 229.647H23.1362L3.92676 210.438L2.60205 211.763L22.2529 231.414H137.73L184.319 278.002H283.236L320.109 314.875Z" fill="#5285F2"/>
<path d="M1.49846 213.087C0.394474 211.983 0.394474 210.217 1.49846 209.113C2.60245 208.009 4.3688 208.009 5.47279 209.113C6.57678 210.217 6.57678 211.983 5.47279 213.087C4.3688 214.191 2.60245 214.191 1.49846 213.087Z" fill="#5285F2"/>
<path d="M203.527 192.994H334.46L375.75 151.926H485.928V150.159H374.866L333.798 191.228H204.19L176.811 164.07L175.707 165.174L203.527 192.994Z" fill="#5285F2"/>
<path d="M485.928 153.692C487.474 153.692 488.578 152.368 488.578 151.043C488.578 149.497 487.253 148.393 485.928 148.393C484.382 148.393 483.278 149.718 483.278 151.043C483.058 152.588 484.382 153.692 485.928 153.692Z" fill="#5285F2"/>
<path d="M174.383 166.719C173.279 165.615 173.279 163.849 174.383 162.745C175.487 161.641 177.253 161.641 178.357 162.745C179.461 163.849 179.461 165.615 178.357 166.719C177.253 167.823 175.487 167.823 174.383 166.719Z" fill="#5285F2"/>
<path d="M177.695 236.933H263.365L294.056 206.022L292.952 204.697L262.482 234.946H177.695V236.933Z" fill="#5285F2"/>
<path d="M295.38 207.346C296.484 206.242 296.484 204.476 295.38 203.372C294.276 202.268 292.509 202.268 291.405 203.372C290.301 204.476 290.301 206.242 291.405 207.346C292.509 208.45 294.276 208.45 295.38 207.346Z" fill="#5285F2"/>
</svg>
