<svg width="1295" height="829" viewBox="0 0 1295 829" fill="none" xmlns="http://www.w3.org/2000/svg">
<path d="M936.687 387.687H2182.62V390.187H936.687V387.687Z" fill="#5285F2"/>
<path d="M937.001 392.687C934.814 392.687 933.251 390.813 933.251 388.937C933.251 386.75 935.126 385.188 937.001 385.188C939.189 385.188 940.751 387.062 940.751 388.937C940.751 391.125 939.189 392.687 937.001 392.687Z" fill="#5285F2"/>
<path d="M1476.37 324.25H1795.44V321.438H1477.31L1335.75 179.875H782.311L751.999 149.562H601.061L549.499 201.437H331.686L292.624 240.5L294.186 242.375L332.936 203.938H550.436L602.311 152.375H751.061L781.061 182.375H1334.5L1476.37 324.25Z" fill="#5285F2"/>
<path d="M296.375 244.25C294.812 245.812 292.312 245.812 290.75 244.25C289.187 242.688 289.187 240.187 290.75 238.625C292.312 237.063 294.812 237.063 296.375 238.625C297.625 240.187 297.625 242.688 296.375 244.25Z" fill="#5285F2"/>
<path d="M792.626 290.188H1374.81V287.375H793.876L739.501 233H501.689V235.813H738.251L792.626 290.188Z" fill="#5285F2"/>
<path d="M502 238.313C499.813 238.313 498.25 236.438 498.25 234.563C498.25 232.375 500.125 230.812 502 230.812C504.188 230.812 505.75 232.688 505.75 234.563C505.75 236.438 504.188 238.313 502 238.313Z" fill="#5285F2"/>
<path d="M1938.56 300.813H2129.5V298.313H1939.5L1834.81 193.313H1656.06L1465.75 3.00049H773.562V5.50049H1464.81L1655.12 195.813H1833.56L1938.56 300.813Z" fill="#5285F2"/>
<path d="M773.875 8.3125C771.688 8.3125 770.125 6.4375 770.125 4.5625C770.125 2.6875 772 0.8125 773.875 0.8125C776.063 0.8125 777.625 2.6875 777.625 4.5625C777.625 6.4375 776.063 8.3125 773.875 8.3125Z" fill="#5285F2"/>
<path d="M1514.81 281.126L1516.69 279.251L1372.63 135.188H1094.19L1041.69 82.688H660.75L633.875 109.563H435.438L387 158.001L388.875 159.876L436.375 112.063H634.813L661.688 85.188H1040.75L1093.25 137.688H1371.38L1514.81 281.126Z" fill="#5285F2"/>
<path d="M390.749 161.438C389.186 163 386.686 163 385.124 161.438C383.561 159.875 383.561 157.375 385.124 155.813C386.686 154.25 389.186 154.25 390.749 155.813C392.311 157.688 392.311 159.875 390.749 161.438Z" fill="#5285F2"/>
<path d="M1537.94 203.312L1539.81 201.437L1413.88 75.5H1161.38L1125.75 39.875H573.564L544.501 10.8125L542.939 12.6875L572.626 42.6875H1124.81L1160.44 78H1412.94L1537.94 203.312Z" fill="#5285F2"/>
<path d="M541.062 14.5625C539.499 13 539.499 10.5 541.062 8.9375C542.624 7.375 545.124 7.375 546.687 8.9375C548.249 10.5 548.249 13 546.687 14.5625C545.124 16.125 542.624 16.125 541.062 14.5625Z" fill="#5285F2"/>
<path d="M820.126 247.688H1321.69V250.188H820.126V247.688Z" fill="#5285F2"/>
<path d="M820.438 253C818.251 253 816.688 251.125 816.688 249.25C816.688 247.062 818.563 245.5 820.438 245.5C822.313 245.5 824.188 247.375 824.188 249.25C824.188 251.125 822.626 253 820.438 253Z" fill="#5285F2"/>
<path d="M560.126 668H1091.06L1228.88 529.875H1850.44L1938.25 426.437H2136.06V423.937H1937.31L1849.19 527.375H1227.63L1089.81 665.187H560.126V668Z" fill="#5285F2"/>
<path d="M560.124 670.5C557.937 670.5 556.374 668.625 556.374 666.75C556.374 664.562 558.249 663 560.124 663C562.312 663 563.874 664.875 563.874 666.75C564.186 668.625 562.312 670.5 560.124 670.5Z" fill="#5285F2"/>
<path d="M502.937 557.063H950.438L1039.81 467.688H1852V465.188H1038.87L949.5 554.563H502.937V557.063Z" fill="#5285F2"/>
<path d="M503.249 559.875C501.062 559.875 499.499 558 499.499 556.125C499.499 553.937 501.374 552.375 503.249 552.375C505.436 552.375 506.999 554.25 506.999 556.125C506.999 558 505.436 559.875 503.249 559.875Z" fill="#5285F2"/>
<path d="M439.5 619.25H754.813L784.188 590.188H1030.75L1127.63 493.313L1125.75 491.438L1029.81 587.688H782.938L753.876 616.75H439.5V619.25Z" fill="#5285F2"/>
<path d="M1126.38 496.438C1124.3 496.438 1122.62 494.759 1122.62 492.688C1122.62 490.617 1124.3 488.938 1126.38 488.938C1128.45 488.938 1130.12 490.617 1130.12 492.688C1130.12 494.759 1128.45 496.438 1126.38 496.438Z" fill="#5285F2"/>
<path d="M439.812 622.063C437.625 622.063 436.062 620.188 436.062 618.314C436.062 616.126 437.937 614.563 439.812 614.563C442 614.563 443.562 616.439 443.562 618.314C443.562 620.188 442 622.063 439.812 622.063Z" fill="#5285F2"/>
<path d="M960.125 428.313H1469.19V430.813H960.125V428.313Z" fill="#5285F2"/>
<path d="M960.126 433.625C957.939 433.625 956.376 431.75 956.376 429.875C956.376 427.687 958.251 426.125 960.126 426.125C962.313 426.125 963.876 428 963.876 429.875C964.188 431.75 962.313 433.625 960.126 433.625Z" fill="#5285F2"/>
<path d="M757.627 510.501H951.376V508.001H758.876L681.064 430.188H325.127V433.001H680.127L757.627 510.501Z" fill="#5285F2"/>
<path d="M951.063 513C948.992 513 947.313 511.321 947.313 509.25C947.313 507.179 948.992 505.5 951.063 505.5C953.134 505.5 954.813 507.179 954.813 509.25C954.813 511.321 953.134 513 951.063 513Z" fill="#5285F2"/>
<path d="M325.126 435.501C322.938 435.501 321.376 433.626 321.376 431.75C321.376 429.563 323.251 428 325.126 428C327.001 428 328.876 429.875 328.876 431.75C329.188 433.626 327.313 435.501 325.126 435.501Z" fill="#5285F2"/>
<path d="M429.812 384.25H768.562L809.187 343.625H1211.37L1238.87 316.125L1237 314.25L1210.12 340.813H808.249L767.624 381.75H429.812V384.25Z" fill="#5285F2"/>
<path d="M1240.44 318.001C1242 316.438 1242 313.938 1240.44 312.375C1238.87 310.813 1236.37 310.813 1234.81 312.375C1233.25 313.938 1233.25 316.438 1234.81 318.001C1236.37 319.563 1238.87 319.563 1240.44 318.001Z" fill="#5285F2"/>
<path d="M430.125 386.75C427.938 386.75 426.375 384.875 426.375 383C426.375 380.812 428.25 379.25 430.125 379.25C432.313 379.25 433.875 381.125 433.875 383C433.875 385.188 432.313 386.75 430.125 386.75Z" fill="#5285F2"/>
<path d="M277.626 333.313H542.626L587.938 288H728.251V285.188H587.001L541.688 330.5H278.563L239.501 291.75L237.626 293.625L277.626 333.313Z" fill="#5285F2"/>
<path d="M727.937 290.499C730.125 290.499 731.687 288.624 731.687 286.749C731.687 284.562 729.812 283 727.937 283C725.75 283 724.187 284.874 724.187 286.749C724.187 288.624 725.75 290.499 727.937 290.499Z" fill="#5285F2"/>
<path d="M236.063 295.5C234.5 293.938 234.5 291.437 236.063 289.875C237.625 288.313 240.125 288.313 241.688 289.875C243.25 291.437 243.25 293.938 241.688 295.5C240.125 297.062 237.625 297.062 236.063 295.5Z" fill="#5285F2"/>
<path d="M839.188 828.938H1657.31L2029.81 456.75L2027.94 454.875L1656.38 826.438H840.438L764.813 750.813H309.501L234.188 675.188H144.501V678.001H233.251L308.563 753.313H763.563L839.188 828.938Z" fill="#5285F2"/>
<path d="M144.501 680.5C142.313 680.5 140.751 678.625 140.751 676.75C140.751 674.563 142.626 673 144.501 673C146.689 673 148.251 674.875 148.251 676.75C148.564 678.625 146.689 680.5 144.501 680.5Z" fill="#5285F2"/>
<path d="M831.687 753.938H1256.06L1288.25 721.438H1719.19V718.938H1287.31L1254.81 751.438H831.687V753.938Z" fill="#5285F2"/>
<path d="M832 756.437C829.812 756.437 828.25 754.562 828.25 752.687C828.25 750.5 830.125 748.937 832 748.937C834.187 748.937 835.75 750.812 835.75 752.687C835.75 754.875 834.187 756.437 832 756.437Z" fill="#5285F2"/>
<path d="M452.937 702.375H1179.81L1209.5 672.687H1722.94L1801.69 593.937H1857.62V591.437H1800.75L1722 670.187H1208.25L1178.56 699.875H453.874L401.687 647.687H261.687L195.75 581.75H32.6245L5.43697 554.562L3.56205 556.438L31.3744 584.25H194.812L260.75 650.187H400.749L452.937 702.375Z" fill="#5285F2"/>
<path d="M1.99976 558.312C0.437254 556.75 0.437254 554.25 1.99976 552.687C3.56227 551.125 6.06224 551.125 7.62475 552.687C9.18726 554.25 9.18726 556.75 7.62475 558.312C6.06224 559.875 3.56227 559.875 1.99976 558.312Z" fill="#5285F2"/>
<path d="M287.936 529.875H473.248L531.686 471.75H687.623V469.25H530.436L472.311 527.375H288.873L250.123 488.938L248.561 490.5L287.936 529.875Z" fill="#5285F2"/>
<path d="M687.624 474.25C689.811 474.25 691.374 472.375 691.374 470.5C691.374 468.313 689.499 466.75 687.624 466.75C685.436 466.75 683.874 468.625 683.874 470.5C683.561 472.688 685.436 474.25 687.624 474.25Z" fill="#5285F2"/>
<path d="M246.686 492.688C245.124 491.125 245.124 488.626 246.686 487.063C248.249 485.5 250.749 485.5 252.311 487.063C253.874 488.626 253.874 491.125 252.311 492.688C250.749 494.25 248.249 494.25 246.686 492.688Z" fill="#5285F2"/>
<path d="M251.375 592.062H372.625L416.062 548.312L414.5 546.438L371.375 589.25H251.375V592.062Z" fill="#5285F2"/>
<path d="M417.936 550.188C419.499 548.625 419.499 546.125 417.936 544.562C416.374 543 413.874 543 412.311 544.562C410.749 546.125 410.749 548.625 412.311 550.188C413.874 551.75 416.374 551.75 417.936 550.188Z" fill="#5285F2"/>
<path d="M251.686 594.562C249.499 594.562 247.937 592.688 247.937 590.812C247.937 588.625 249.811 587.062 251.686 587.062C253.874 587.062 255.437 588.937 255.437 590.812C255.437 592.688 253.561 594.562 251.686 594.562Z" fill="#5285F2"/>
<g opacity="0.6">
<g opacity="0.6">
<path opacity="0.6" d="M1227.62 393.937H2183.56V395.812H1227.62V393.937Z" fill="#5285F2"/>
</g>
<g opacity="0.6">
<path opacity="0.6" d="M1227.63 397.688C1226.06 397.688 1224.5 396.438 1224.5 394.562C1224.5 393 1225.75 391.438 1227.63 391.438C1229.5 391.438 1230.75 392.687 1230.75 394.562C1230.75 396.438 1229.5 397.688 1227.63 397.688Z" fill="#5285F2"/>
</g>
</g>
<g opacity="0.6">
<g opacity="0.6">
<path opacity="0.6" d="M1641.69 345.188H1886.38V343.313H1642.31L1533.56 234.563H1108.88L1085.75 211.438H970.125L930.438 251.126H763.562L733.25 281.126L734.812 282.688L764.188 253.001H931.375L970.75 213.313H1085.12L1108.25 236.438H1532.94L1641.69 345.188Z" fill="#5285F2"/>
</g>
<g opacity="0.6">
<path opacity="0.6" d="M736.063 283.938C734.813 285.188 732.938 285.188 732 283.938C730.75 282.688 730.75 280.813 732 279.876C733.25 278.626 735.125 278.626 736.063 279.876C737.313 280.813 737.313 282.688 736.063 283.938Z" fill="#5285F2"/>
</g>
</g>
<g opacity="0.6">
<g opacity="0.6">
<path opacity="0.6" d="M1117 318.938H1563.56V317.063H1117.94L1076.06 275.5H893.875V277.375H1075.44L1117 318.938Z" fill="#5285F2"/>
</g>
<g opacity="0.6">
<path opacity="0.6" d="M893.875 279.25C892.313 279.25 890.75 278 890.75 276.125C890.75 274.563 892 273 893.875 273C895.438 273 897 274.25 897 276.125C897 278 895.75 279.25 893.875 279.25Z" fill="#5285F2"/>
</g>
</g>
<g opacity="0.6">
<g opacity="0.6">
<path opacity="0.6" d="M1996.06 327.376H2142.94V325.189H1997L1916.69 244.876H1779.5L1633.56 98.9385H1102.31V100.813H1632.62L1778.56 246.751H1915.75L1996.06 327.376Z" fill="#5285F2"/>
</g>
<g opacity="0.6">
<path opacity="0.6" d="M1102.63 103C1100.9 103 1099.5 101.601 1099.5 99.8755C1099.5 98.1496 1100.9 96.7505 1102.63 96.7505C1104.35 96.7505 1105.75 98.1496 1105.75 99.8755C1105.75 101.601 1104.35 103 1102.63 103Z" fill="#5285F2"/>
</g>
</g>
<g opacity="0.6">
<g opacity="0.6">
<path opacity="0.6" d="M1671.06 312.063L1672.63 310.813L1562 200.188H1348.25L1308.25 159.876H1015.75L995.126 180.501H842.938L805.751 217.688L807.001 219.251L843.876 182.688H996.063L1016.69 162.063H1307.31L1347.63 202.063H1561.06L1671.06 312.063Z" fill="#5285F2"/>
</g>
<g opacity="0.6">
<path opacity="0.6" d="M808.563 220.501C807.313 221.751 805.438 221.751 804.5 220.501C803.25 219.251 803.25 217.375 804.5 216.438C805.75 215.188 807.625 215.188 808.563 216.438C809.813 217.375 809.813 219.251 808.563 220.501Z" fill="#5285F2"/>
</g>
</g>
<g opacity="0.6">
<g opacity="0.6">
<path opacity="0.6" d="M1688.88 252.688L1690.44 251.126L1593.88 154.563H1400.13L1372.63 127.063H949.189L926.689 104.876L925.439 106.126L948.252 129.251H1372L1399.19 156.438H1592.94L1688.88 252.688Z" fill="#5285F2"/>
</g>
<g opacity="0.6">
<path opacity="0.6" d="M924.188 107.688C922.938 106.438 922.938 104.563 924.188 103.625C925.438 102.375 927.313 102.375 928.25 103.625C929.5 104.875 929.5 106.75 928.25 107.688C927 108.938 925.126 108.938 924.188 107.688Z" fill="#5285F2"/>
</g>
</g>
<g opacity="0.6">
<g opacity="0.6">
<path opacity="0.6" d="M1138.25 286.75H1522.94V288.625H1138.25V286.75Z" fill="#5285F2"/>
</g>
<g opacity="0.6">
<path opacity="0.6" d="M1138.25 290.5C1136.69 290.5 1135.13 289.25 1135.13 287.375C1135.13 285.813 1136.38 284.25 1138.25 284.25C1139.81 284.25 1141.38 285.5 1141.38 287.375C1141.38 289.25 1140.13 290.5 1138.25 290.5Z" fill="#5285F2"/>
</g>
</g>
<g opacity="0.6">
<g opacity="0.6">
<path opacity="0.6" d="M938.562 608.938H1345.75L1451.69 503.313H1928.56L1996.06 423.626H2147.62V421.75H1995.12L1927.62 501.125H1450.75L1345.12 607.063H938.562V608.938Z" fill="#5285F2"/>
</g>
<g opacity="0.6">
<path opacity="0.6" d="M938.561 611.125C936.835 611.125 935.436 609.725 935.436 608C935.436 606.274 936.835 604.875 938.561 604.875C940.286 604.875 941.686 606.274 941.686 608C941.686 609.725 940.286 611.125 938.561 611.125Z" fill="#5285F2"/>
</g>
</g>
<g opacity="0.6">
<g opacity="0.6">
<path opacity="0.6" d="M894.811 523.938H1238.25L1306.69 455.5H1929.81V453.625H1305.75L1237.31 522.063H894.811V523.938Z" fill="#5285F2"/>
</g>
<g opacity="0.6">
<path opacity="0.6" d="M895.125 526.125C893.562 526.125 892 524.875 892 523C892 521.438 893.25 519.875 895.125 519.875C896.687 519.875 898.25 521.125 898.25 523C897.937 524.563 896.687 526.125 895.125 526.125Z" fill="#5285F2"/>
</g>
</g>
<g opacity="0.6">
<g opacity="0.6">
<path opacity="0.6" d="M846.062 571.75H1088.25L1110.44 549.25H1299.81L1373.88 475.188L1372.63 473.625L1298.88 547.375H1109.5L1087.31 569.875H846.062V571.75Z" fill="#5285F2"/>
</g>
<g opacity="0.6">
<path opacity="0.6" d="M846.375 573.625C844.813 573.625 843.25 572.375 843.25 570.5C843.25 568.938 844.5 567.375 846.375 567.375C847.938 567.375 849.5 568.625 849.5 570.5C849.188 572.375 847.938 573.625 846.375 573.625Z" fill="#5285F2"/>
</g>
</g>
<g opacity="0.6">
<g opacity="0.6">
<path opacity="0.6" d="M1245.44 425.188H1636.06V427.063H1245.44V425.188Z" fill="#5285F2"/>
</g>
<g opacity="0.6">
<path opacity="0.6" d="M1245.75 429.25C1244.02 429.25 1242.63 427.851 1242.63 426.125C1242.63 424.4 1244.02 423 1245.75 423C1247.48 423 1248.88 424.4 1248.88 426.125C1248.88 427.851 1247.48 429.25 1245.75 429.25Z" fill="#5285F2"/>
</g>
</g>
<g opacity="0.6">
<g opacity="0.6">
<path opacity="0.6" d="M1090.12 488.314H1238.87V486.126H1091.06L1031.37 426.751H758.249V428.626H1030.75L1090.12 488.314Z" fill="#5285F2"/>
</g>
<g opacity="0.6">
<path opacity="0.6" d="M1238.56 490.5C1236.84 490.5 1235.44 489.101 1235.44 487.375C1235.44 485.65 1236.84 484.25 1238.56 484.25C1240.29 484.25 1241.69 485.65 1241.69 487.375C1241.69 489.101 1240.29 490.5 1238.56 490.5Z" fill="#5285F2"/>
</g>
<g opacity="0.6">
<path opacity="0.6" d="M758.25 430.813C756.524 430.813 755.125 429.414 755.125 427.688C755.125 425.962 756.524 424.563 758.25 424.563C759.976 424.563 761.375 425.962 761.375 427.688C761.375 429.414 759.976 430.813 758.25 430.813Z" fill="#5285F2"/>
</g>
</g>
<g opacity="0.6">
<g opacity="0.6">
<path opacity="0.6" d="M838.562 391.438H1098.56L1129.81 360.188H1438.25L1459.19 338.938L1457.94 337.688L1437.31 358.001H1128.87L1097.62 389.563H838.562V391.438Z" fill="#5285F2"/>
</g>
<g opacity="0.6">
<path opacity="0.6" d="M838.875 393.313C837.312 393.313 835.75 392.063 835.75 390.188C835.75 388.625 837 387.063 838.875 387.063C840.437 387.063 842 388.313 842 390.188C841.687 392.063 840.437 393.313 838.875 393.313Z" fill="#5285F2"/>
</g>
</g>
<g opacity="0.6">
<g opacity="0.6">
<path opacity="0.6" d="M721.687 352.063H925.125L959.812 317.376H1067.62V315.5H959.188L924.5 350.188H722.625L692.625 320.188L691.375 321.75L721.687 352.063Z" fill="#5285F2"/>
</g>
<g opacity="0.6">
<path opacity="0.6" d="M1067.31 319.562C1065.59 319.562 1064.19 318.163 1064.19 316.438C1064.19 314.712 1065.59 313.312 1067.31 313.312C1069.04 313.312 1070.44 314.712 1070.44 316.438C1070.44 318.163 1069.04 319.562 1067.31 319.562Z" fill="#5285F2"/>
</g>
<g opacity="0.6">
<path opacity="0.6" d="M690.127 323.313C688.877 322.063 688.877 320.188 690.127 319.25C691.377 318.313 693.252 318 694.189 319.25C695.439 320.5 695.439 322.375 694.189 323.313C692.939 324.25 691.064 324.25 690.127 323.313Z" fill="#5285F2"/>
</g>
</g>
<g opacity="0.6">
<g opacity="0.6">
<path opacity="0.6" d="M1152.94 732.688H1780.44L2066.37 446.75L2064.81 445.5L1779.5 730.5H1153.56L1095.44 672.688H746.374L688.561 614.563H619.812V616.751H687.624L745.437 674.563H1094.81L1152.94 732.688Z" fill="#5285F2"/>
</g>
<g opacity="0.6">
<path opacity="0.6" d="M619.813 618.625C618.251 618.625 616.688 617.375 616.688 615.5C616.688 613.938 617.938 612.375 619.813 612.375C621.376 612.375 622.938 613.625 622.938 615.5C622.626 617.375 621.376 618.625 619.813 618.625Z" fill="#5285F2"/>
</g>
</g>
<g opacity="0.6">
<g opacity="0.6">
<path opacity="0.6" d="M1147 674.875H1472.62L1497.31 650.188H1827.94V648.313H1496.69L1471.69 673.001H1147V674.875Z" fill="#5285F2"/>
</g>
<g opacity="0.6">
<path opacity="0.6" d="M1147 677.063C1145.44 677.063 1143.88 675.813 1143.88 673.938C1143.88 672.376 1145.13 670.813 1147 670.813C1148.56 670.813 1150.13 672.063 1150.13 673.938C1150.13 675.501 1148.88 677.063 1147 677.063Z" fill="#5285F2"/>
</g>
</g>
<g opacity="0.6">
<g opacity="0.6">
<path opacity="0.6" d="M856.374 635.5H1414.19L1436.69 612.688H1830.75L1891.37 552.375H1934.19V550.5H1890.44L1830.12 610.813H1436.06L1413.25 633.313H856.999L816.999 593.313H709.499L659.187 542.688H533.875L512.937 522.063L511.687 523.313L532.937 544.875H658.25L708.874 595.5H816.374L856.374 635.5Z" fill="#5285F2"/>
</g>
<g opacity="0.6">
<path opacity="0.6" d="M510.437 524.875C509.187 523.625 509.187 521.75 510.437 520.813C511.687 519.562 513.562 519.562 514.499 520.813C515.749 522.063 515.749 523.938 514.499 524.875C513.249 526.125 511.374 526.125 510.437 524.875Z" fill="#5285F2"/>
</g>
</g>
<g opacity="0.6">
<g opacity="0.6">
<path opacity="0.6" d="M729.812 503.313H872L916.687 458.313H1036.38V456.438H916.062L871.375 501.126H730.437L700.75 471.438L699.5 473.001L729.812 503.313Z" fill="#5285F2"/>
</g>
<g opacity="0.6">
<path opacity="0.6" d="M1036.38 460.5C1037.94 460.5 1039.5 459.25 1039.5 457.375C1039.5 455.813 1038.25 454.25 1036.38 454.25C1034.81 454.25 1033.25 455.5 1033.25 457.375C1033.25 459.25 1034.81 460.5 1036.38 460.5Z" fill="#5285F2"/>
</g>
<g opacity="0.6">
<path opacity="0.6" d="M698.251 474.563C697.001 473.313 697.001 471.438 698.251 470.5C699.501 469.563 701.376 469.25 702.313 470.5C703.563 471.75 703.563 473.625 702.313 474.563C701.063 475.5 699.188 475.5 698.251 474.563Z" fill="#5285F2"/>
</g>
</g>
<g opacity="0.6">
<g opacity="0.6">
<path opacity="0.6" d="M701.686 550.813H794.811L828.249 517.375L826.686 515.813L793.874 548.625H701.686V550.813Z" fill="#5285F2"/>
</g>
<g opacity="0.6">
<path opacity="0.6" d="M829.499 518.625C830.749 517.375 830.749 515.5 829.499 514.562C828.249 513.313 826.374 513.313 825.437 514.562C824.187 515.812 824.187 517.688 825.437 518.625C826.374 519.875 828.249 519.875 829.499 518.625Z" fill="#5285F2"/>
</g>
<g opacity="0.6">
<path opacity="0.6" d="M702 552.688C700.274 552.688 698.875 551.288 698.875 549.562C698.875 547.837 700.274 546.438 702 546.438C703.726 546.438 705.125 547.837 705.125 549.562C705.125 551.288 703.726 552.688 702 552.688Z" fill="#5285F2"/>
</g>
</g>
</svg>
